<svg xmlns="http://www.w3.org/2000/svg" viewBox="0 0 270 470" font-family="'Space Grotesk',sans-serif">
  <rect width="270" height="470" fill="#111827"/>
  <!-- header -->
  <rect width="270" height="56" fill="#EB8232"/>
  <text x="16" y="34" fill="#fff" font-size="15" font-weight="700">Breakside</text>
  <rect x="150" y="12" width="104" height="32" rx="6" fill="rgba(0,0,0,.18)"/>
  <text x="202" y="34" fill="#fff" font-size="16" font-weight="700" text-anchor="middle">7 – 6</text>
  <!-- tabs -->
  <rect x="12" y="68" width="246" height="26" rx="13" fill="#1F2937"/>
  <rect x="14" y="70" width="58" height="22" rx="11" fill="#EB8232"/>
  <text x="43" y="85" fill="#fff" font-size="10" font-weight="600" text-anchor="middle">Simple</text>
  <text x="100" y="85" fill="#9CA3AF" font-size="10" text-anchor="middle">Full</text>
  <text x="143" y="85" fill="#9CA3AF" font-size="10" text-anchor="middle">Field</text>
  <text x="186" y="85" fill="#9CA3AF" font-size="10" text-anchor="middle">Line</text>
  <text x="226" y="85" fill="#9CA3AF" font-size="10" text-anchor="middle">Log</text>
  <!-- big buttons -->
  <rect x="20" y="120" width="230" height="86" rx="14" fill="#10B981"/>
  <text x="135" y="170" fill="#fff" font-size="24" font-weight="700" text-anchor="middle">We Score</text>
  <rect x="20" y="222" width="230" height="86" rx="14" fill="#EF4444"/>
  <text x="135" y="272" fill="#fff" font-size="24" font-weight="700" text-anchor="middle">They Score</text>
  <rect x="20" y="324" width="230" height="86" rx="14" fill="#3B82F6"/>
  <text x="135" y="374" fill="#fff" font-size="24" font-weight="700" text-anchor="middle">Key Play</text>
  <rect x="20" y="426" width="230" height="28" rx="8" fill="#1F2937"/>
  <text x="135" y="445" fill="#6B7280" font-size="11" text-anchor="middle">Next Line · Bob, Charlie, Dana…</text>
</svg>
